<?xml version="1.0" encoding="UTF-8"?>
<svg width="500" height="400" viewBox="0 0 500 400" fill="none" xmlns="http://www.w3.org/2000/svg">
  <rect width="500" height="400" fill="#F0FBFC"/>
  <circle cx="250" cy="200" r="150" fill="#181d38" fill-opacity="0.1"/>
  <rect x="150" y="120" width="200" height="160" rx="8" fill="white" stroke="#181d38" stroke-width="2"/>
  <rect x="170" y="140" width="160" height="20" rx="4" fill="#181d38" fill-opacity="0.1"/>
  <rect x="170" y="170" width="160" height="20" rx="4" fill="#181d38" fill-opacity="0.1"/>
  <rect x="170" y="200" width="160" height="20" rx="4" fill="#181d38" fill-opacity="0.1"/>
  <rect x="170" y="230" width="80" height="30" rx="4" fill="#06BBCC"/>
  <path d="M190 245L195 250L205 240" stroke="white" stroke-width="2" stroke-linecap="round" stroke-linejoin="round"/>
  <circle cx="320" cy="120" r="30" fill="#06BBCC"/>
  <path d="M320 110V130" stroke="white" stroke-width="2" stroke-linecap="round"/>
  <path d="M310 120H330" stroke="white" stroke-width="2" stroke-linecap="round"/>
  <path d="M150 80L170 100M170 80L150 100" stroke="#181d38" stroke-width="2" stroke-linecap="round"/>
  <path d="M350 80L370 100M370 80L350 100" stroke="#181d38" stroke-width="2" stroke-linecap="round"/>
  <path d="M150 300L170 320M170 300L150 320" stroke="#181d38" stroke-width="2" stroke-linecap="round"/>
  <path d="M350 300L370 320M370 300L350 320" stroke="#181d38" stroke-width="2" stroke-linecap="round"/>
  <circle cx="150" cy="200" r="10" fill="#181d38"/>
  <circle cx="350" cy="200" r="10" fill="#181d38"/>
  <circle cx="250" cy="80" r="10" fill="#181d38"/>
  <circle cx="250" cy="320" r="10" fill="#181d38"/>
</svg>
