<?xml version="1.0" encoding="UTF-8"?>
<svg width="500" height="400" viewBox="0 0 500 400" fill="none" xmlns="http://www.w3.org/2000/svg">
  <rect width="500" height="400" fill="#F0FBFC"/>
  <circle cx="250" cy="200" r="150" fill="#06BBCC" fill-opacity="0.1"/>
  <rect x="200" y="150" width="100" height="150" rx="10" fill="white" stroke="#06BBCC" stroke-width="2"/>
  <circle cx="250" cy="200" r="20" fill="#06BBCC"/>
  <rect x="240" y="220" width="20" height="40" rx="2" fill="#06BBCC"/>
  <path d="M240 220V190" stroke="#06BBCC" stroke-width="8" stroke-linecap="round"/>
  <path d="M260 220V190" stroke="#06BBCC" stroke-width="8" stroke-linecap="round"/>
  <path d="M230 190H270" stroke="#06BBCC" stroke-width="8" stroke-linecap="round"/>
  <path d="M240 260H260" stroke="#06BBCC" stroke-width="4" stroke-linecap="round"/>
  <path d="M150 100L170 120M170 100L150 120" stroke="#06BBCC" stroke-width="2" stroke-linecap="round"/>
  <path d="M350 100L370 120M370 100L350 120" stroke="#06BBCC" stroke-width="2" stroke-linecap="round"/>
  <path d="M150 280L170 300M170 280L150 300" stroke="#06BBCC" stroke-width="2" stroke-linecap="round"/>
  <path d="M350 280L370 300M370 280L350 300" stroke="#06BBCC" stroke-width="2" stroke-linecap="round"/>
  <circle cx="150" cy="200" r="10" fill="#06BBCC"/>
  <circle cx="350" cy="200" r="10" fill="#06BBCC"/>
  <circle cx="250" cy="100" r="10" fill="#06BBCC"/>
  <circle cx="250" cy="300" r="10" fill="#06BBCC"/>
</svg>
